<?xml version="1.0" encoding="UTF-8"?>
<svg id="_Слой_2" data-name="Слой 2" xmlns="http://www.w3.org/2000/svg" viewBox="0 0 144.11 80.89">
  <defs>
    <style>
      .cls-1 {
        font-family: AktivGroteskCorp-Light, 'Aktiv Grotesk Corp';
        font-weight: 300;
      }

      .cls-1, .cls-2 {
        font-size: 21px;
      }

      .cls-3 {
        letter-spacing: -.09em;
      }

      .cls-4 {
        letter-spacing: -.02em;
      }

      .cls-5 {
        letter-spacing: 0em;
      }

      .cls-2 {
        font-family: AktivGroteskCorp-Bold, 'Aktiv Grotesk Corp';
        font-weight: 700;
      }

      .cls-6 {
        letter-spacing: 0em;
      }
    </style>
  </defs>
  <g id="_Слой_2-2" data-name="Слой 2">
    <g>
      <g>
        <path d="M31.22,48.76c.35-1.75-6.4-2.44-7.63-7.04-.99-3.67,1.91-8.54,5.33-9.93.78-.32,2.25-.39,5.17-.57,2.01-.13,3.68-.16,4.83-.17.6-.16,1.42-.48,2.07-1.19.47-.5.41-.72.89-1.56.82-1.43,1.36-1.42,2.89-3.48.3-.41.56-.75.89-1.26.81-1.24.93-1.22,1.27-1.58.82-.86,1.87-1.21,2.44-1.29,1.26-.17,3.16.04,3.77,1.01.08.13.21.39.51.65.31.27.51.25,1.12.54.47.22,1.13.66,2.16.91.06.01.13.03.21.05,1.06.22,1.99.03,2.44-.07,1.07-.25,29.42-6.98,68.22-16.22,1.01.86,2.75,2.11,5.04,2.67,1.13.28,2.21.34,2.59.36,1.65.08,2.48.21,2.74-.14.63-.84-1.61-3.48-2-3.93l-2.22-3.11c-.27-.27-.54-.54-.81-.81-3.69.83-9.87,2.23-13.56,3.06-20.15,4.56-40.3,9.15-60.44,13.78-.08-1.73.03-3.12.13-4.06.21-1.94.53-2.78.09-3.86-.5-1.24-1.63-1.88-2.09-2.14-2.59-1.46-5.68-.57-7.94.08-1.36.39-6.92,2.07-10.8,6.79-.62.75-.7.98-1.19,1.33-1.8,1.31.05,2.05-11.04-1.19-4.99-1.46-5.42-1.63-7.19-1.93-3.62-.61-5.95-.45-7.7-.15-1.32.23-2.51.44-3.93,1.19-1.23.65-2.28,1.69-4.37,3.76-.93.92-1.36,1.42-1.78,2.11-.69,1.15-.93,2.17-1.06,2.78-.46,2.01-.27,3.81,0,5.06.03,1.67.54,2.58,1.01,3.11.37.41.38.6.76,1.17.54.81.64,1.12,1.2,1.87.41.55.43.71.89,1.28.65.8.54.81,1.09,1.69.41.64.49.4,2,1.99.36.38.56.61,1.03,1.07.23.23.27.26,1,.96.35.33.6.57,1.04,1,.65.62.93.9,1.02.98,1.04.99,2.49,1.77,2.93,2,2.7,1.46,3.62,2.34,5.02,3.04,4.67,2.34,11.61,1.12,11.96-.61Z"/>
        <circle cx="121.12" cy="3.48" r="1.49"/>
        <circle cx="125.66" cy="2.46" r="1.49"/>
        <circle cx="130.02" cy="1.49" r="1.49"/>
      </g>
      <text class="cls-2" transform="translate(33.04 48.41)"><tspan class="cls-6" x="0" y="0">GUI</tspan><tspan class="cls-3" x="36.31" y="0">T</tspan><tspan class="cls-6" x="47.44" y="0">AR</tspan></text>
      <text class="cls-1" transform="translate(52.85 65.51)"><tspan class="cls-5" x="0" y="0">S</tspan><tspan x="13.31" y="0">CHOO</tspan><tspan class="cls-4" x="74.42" y="0">L</tspan></text>
    </g>
  </g>
</svg>