<svg width="268" height="268" viewBox="0 0 268 268" fill="none" xmlns="http://www.w3.org/2000/svg">
<path fill-rule="evenodd" clip-rule="evenodd" d="M209.121 23.4923C229.459 37.473 245.917 57.0401 256.025 80.3999L209.121 23.4923ZM206.251 21.5733C201 18.159 195.507 15.1097 189.811 12.4548L263.09 101.363C261.576 95.2312 259.65 89.2908 257.347 83.5669L206.251 21.5733ZM250.576 197.702C251.779 195.512 252.921 193.287 254.001 191.029L100.069 4.26767C97.6333 4.89501 95.2279 5.58752 92.8549 6.343L250.576 197.702ZM91.8374 6.67145C89.5081 7.43366 87.2104 8.25671 84.9459 9.13848L246.313 204.921C247.617 202.861 248.866 200.766 250.058 198.637L91.8374 6.67145ZM263.261 165.089C262.595 167.819 261.845 170.52 261.012 173.189L118.938 0.81508C121.741 0.504956 124.535 0.284618 127.316 0.151869L263.261 165.089ZM112.632 1.66308C114.345 1.39187 116.055 1.15451 117.762 0.950498L260.654 174.318C259.833 176.871 258.935 179.394 257.965 181.884L109.816 2.13941C110.751 1.97118 111.69 1.81237 112.632 1.66308ZM254.471 190.037C255.564 187.705 256.59 185.339 257.548 182.941L108.698 2.34552C106.147 2.82682 103.625 3.37837 101.135 3.99785L254.471 190.037ZM83.9734 9.52157C81.744 10.41 79.5472 11.3555 77.3846 12.3561L241.706 211.722C243.106 209.785 244.455 207.811 245.75 205.801L83.9734 9.52157ZM241.101 212.552L76.4546 12.7907C75.0123 13.4716 73.5854 14.1771 72.1744 14.9066L238.207 216.349C239.194 215.101 240.159 213.835 241.101 212.552ZM237.573 217.144L71.2736 15.3766C69.2041 16.4667 67.1693 17.6086 65.1705 18.8003L233.05 222.484C234.604 220.743 236.113 218.962 237.573 217.144ZM232.378 223.231L64.3092 19.3182C62.3281 20.5198 60.383 21.7706 58.4754 23.0685L227.588 228.249C229.229 226.617 230.826 224.944 232.378 223.231ZM214.985 239.303C213.167 240.705 211.31 242.063 209.415 243.374L40.185 38.0513C41.8268 36.4435 43.5113 34.8766 45.2371 33.3527L214.985 239.303ZM188.517 255.192C190.677 254.217 192.804 253.187 194.897 252.105L28.8527 50.648C27.3863 52.5011 25.9691 54.3924 24.6027 56.3199L188.517 255.192ZM171.909 261.389C169.504 262.107 167.068 262.762 164.6 263.35L12.0011 78.2047C13.0484 75.9095 14.1594 73.6465 15.3324 71.4184L171.909 261.389ZM154.399 265.369C155.358 265.217 156.313 265.055 157.264 264.884L9.08476 85.1014C8.11362 87.5904 7.21577 90.1125 6.39343 92.6645L149.321 266.075C151.011 265.873 152.704 265.637 154.399 265.369ZM9.50219 84.0449L158.382 264.677C160.109 264.351 161.822 263.992 163.52 263.602L11.5453 79.2147C10.8333 80.8098 10.1521 82.4202 9.50219 84.0449ZM148.145 266.211L6.03532 93.793C5.20171 96.4611 4.45043 99.1613 3.78402 101.89L139.769 266.877C142.55 266.743 145.343 266.522 148.145 266.211ZM117.388 266.069C113.922 265.649 110.489 265.094 107.095 264.409L0.00476343 134.479C-0.0248608 130.975 0.0838517 127.494 0.326433 124.041L117.388 266.069ZM1.66308 154.399C2.14355 157.433 2.72268 160.426 3.39667 163.377L79.3731 255.557C83.6204 257.446 87.9752 259.118 92.4214 260.56L0.994446 149.634C1.18837 151.22 1.41112 152.808 1.66308 154.399ZM0.784678 147.816L94.1649 261.112C97.8975 262.266 101.692 263.259 105.54 264.085L0.0277075 136.069C0.107064 139.962 0.357357 143.88 0.784678 147.816ZM3.91744 165.572L77.312 254.619C72.0799 252.185 67.018 249.419 62.1576 246.342L9.08656 181.952C7.0347 176.666 5.3027 171.199 3.91744 165.572ZM59.3806 244.536L10.3161 185.007C20.5919 209.649 37.8916 230.179 59.3806 244.536ZM118.812 266.234L0.434793 122.609C0.693286 119.424 1.06572 116.263 1.54857 113.132L128.317 266.936C125.125 266.816 121.956 266.58 118.812 266.234ZM129.641 266.98L1.75728 111.822C2.2401 108.887 2.82005 105.979 3.4942 103.101L138.526 266.931C135.549 267.047 132.586 267.062 129.641 266.98ZM172.94 261.076L15.8375 70.4682C16.999 68.304 18.2192 66.1734 19.4963 64.0786L179.919 258.715C177.625 259.563 175.298 260.35 172.94 261.076ZM180.904 258.347L20.0468 63.1835C21.3139 61.1413 22.6354 59.1338 24.0097 57.1634L187.575 255.613C185.385 256.581 183.16 257.493 180.904 258.347ZM29.4862 49.8537L195.797 251.635C197.866 250.544 199.901 249.401 201.899 248.209L34.011 44.515C32.4561 46.2555 30.9473 48.0358 29.4862 49.8537ZM34.6835 43.7679L202.76 247.691C204.741 246.489 206.685 245.237 208.592 243.939L39.4745 38.7523C37.8335 40.3836 36.236 42.0561 34.6835 43.7679ZM215.77 238.692L45.9851 32.6971C47.7152 31.1922 49.486 29.7301 51.2962 28.3127L221.079 234.306C219.35 235.812 217.579 237.274 215.77 238.692ZM221.827 233.65L52.0815 27.7025C53.8999 26.3005 55.7574 24.9433 57.6524 23.633L226.878 228.95C225.237 230.558 223.552 232.126 221.827 233.65ZM266.71 142.929C266.951 139.473 267.058 135.99 267.026 132.484L160.004 2.63682C156.609 1.94919 153.174 1.39209 149.705 0.970192L266.71 142.929ZM148.281 0.804725C145.136 0.456768 141.966 0.219877 138.773 0.0975185L265.492 153.842C265.974 150.71 266.345 147.548 266.602 144.361L148.281 0.804725ZM265.284 155.153C264.802 158.089 264.223 160.999 263.55 163.878L128.561 0.0983013C131.539 -0.0160387 134.502 -0.0301142 137.448 0.0533678L265.284 155.153ZM174.687 6.49689C179.138 7.94343 183.496 9.61981 187.747 11.5141L263.614 103.561C264.297 106.542 264.883 109.567 265.369 112.632C265.616 114.197 265.836 115.759 266.028 117.318L174.687 6.49689ZM267.003 130.892C266.921 126.997 266.669 123.076 266.239 119.137L172.942 5.94306C169.207 4.78573 165.41 3.78964 161.56 2.96168L267.003 130.892Z" fill="url(#paint0_linear_114_145)" fill-opacity="0.46"/>
<defs>
<linearGradient id="paint0_linear_114_145" x1="262.875" y1="174.464" x2="21.6698" y2="65.2195" gradientUnits="userSpaceOnUse">
<stop offset="0.0432421" stop-color="#2770F6"/>
<stop offset="0.484751" stop-color="#4D3A3A"/>
<stop offset="0.973213" stop-color="#FF662C"/>
</linearGradient>
</defs>
</svg>
